ply
format ascii 1.0
element vertex 128
comment vertices
property float x
property float y
property float z
end_header
0.33329346776008606 2.13205194473266602 0.0262932777404785156
0.513779640197753906 4.81933879852294922 -0.404916912317276001
2.0969691276550293 2.73103833198547363 1.09644770622253418
1.81273818016052246 3.08129143714904785 -0.995658278465270996
-1.06707131862640381 1.70275759696960449 -0.751709997653961182
0.776682376861572266 2.17170166969299316 1.38756489753723145
-0.801426231861114502 1.72802329063415527 0.734805703163146973
0.684300839900970459 3.33850741386413574 -0.321229398250579834
0.344415426254272461 2.09279108047485352 -1.22606050968170166
-0.133367568254470825 0.961068630218505859 -0.386486679315567017
1.49073100090026855 1.96009790897369385 0.130586862564086914
1.07991814613342285 3.08083009719848633 0.735701560974121094
1.11238980293273926 2.46729230880737305 -0.656103789806365967
1.69379854202270508 2.88565587997436523 -0.02452816441655159
0.0877764225006103516 1.40865552425384521 0.538130760192871094
0.255901515483856201 2.64163446426391602 0.817308187484741211
-0.530603289604187012 2.17014360427856445 -0.125215277075767517
2.17087030410766602 2.38648414611816406 -0.717866778373718262
0.496810883283615112 1.60041689872741699 -0.596581697463989258
0.826922357082366943 1.88227272033691406 0.570751488208770752
0.00260807573795318604 1.99419331550598145 1.0791175365447998
-1.03168570995330811 1.66930496692657471 0.0478440523147583008
-0.226144194602966309 1.65663766860961914 -0.582395434379577637
0.99893641471862793 2.72350192070007324 0.0466114431619644165
0.774486005306243896 2.73054027557373047 -1.21474170684814453
0.306296944618225098 3.19697713851928711 0.392214000225067139
1.45198714733123779 2.97274065017700195 1.31398224830627441
0.482597678899765015 2.61783671379089355 -0.447617560625076294
1.19811391830444336 3.18636894226074219 -0.694203197956085205
1.7825615406036377 3.00251674652099609 0.60735243558883667
-0.210540801286697388 1.93997693061828613 0.367388099431991577
0.923061609268188477 1.97906208038330078 -0.305181771516799927
1.34117805957794189 3.36193513870239258 0.285753130912780762
1.66596341133117676 2.70039033889770508 -0.576688289642333984
0.895496249198913574 2.05222415924072266 -1.00181961059570312
-0.0574910715222358704 2.54766726493835449 -0.0770862177014350891
0.792521953582763672 2.95356655120849609 1.21512258052825928
1.40500485897064209 2.62248134613037109 0.759814798831939697
1.60360193252563477 2.60749721527099609 -1.1116945743560791
-0.654847323894500732 1.48761928081512451 -0.27641788125038147
0.15976087749004364 1.29343581199645996 -0.852558255195617676
0.0300629734992980957 2.07428312301635742 -0.400487542152404785
0.299959540367126465 2.00234794616699219 0.529161274433135986
-0.509620189666748047 1.33191812038421631 -0.872878074645996094
0.656945705413818359 2.77389883995056152 0.434616029262542725
0.662982523441314697 2.38293170928955078 0.941593945026397705
1.23813748359680176 3.06678056716918945 -0.199399396777153015
0.388105690479278564 2.7692410945892334 0.0332437083125114441
0.969478428363800049 2.25480508804321289 0.303685605525970459
-0.622631311416625977 1.77491247653961182 -1.01037895679473877
0.835477828979492188 2.89988040924072266 -0.584773123264312744
-0.666755557060241699 1.51302230358123779 0.291607797145843506
-0.710936129093170166 1.90065610408782959 -0.535008490085601807
1.73409664630889893 3.13546991348266602 -0.405068129301071167
-0.660799384117126465 1.98572194576263428 0.332470476627349854
0.491399466991424561 1.70779848098754883 0.00157114863395690918
1.41016542911529541 2.92450213432312012 0.369119703769683838
-0.0164925754070281982 1.82158315181732178 -0.0325747430324554443
0.969036400318145752 3.08994913101196289 0.302237182855606079
-1.19593119621276855 1.71242249011993408 0.460583627223968506
0.226720958948135376 1.91424679756164551 -0.763166308403015137
-0.430466115474700928 2.23434996604919434 -0.566123366355895996
0.954086363315582275 2.57048559188842773 0.697538077831268311
0.40896838903427124 2.3741002082824707 1.34555792808532715
0.521442651748657227 2.06969237327575684 -0.396108657121658325
0.317622005939483643 2.97695159912109375 -0.321479529142379761
0.455488026142120361 2.25171685218811035 -0.830837666988372803
1.14583814144134521 2.73848628997802734 -0.963721990585327148
0.387156635522842407 2.47803211212158203 0.346766769886016846
1.86588597297668457 2.53223538398742676 -0.11952507495880127
0.733475804328918457 2.91495132446289062 -0.189911261200904846
0.379605889320373535 1.93713986873626709 0.946952581405639648
1.02484428882598877 2.04718232154846191 0.879096031188964844
1.69836461544036865 2.91684889793395996 1.00195586681365967
0.421028941869735718 1.63056766986846924 0.389017760753631592
-0.334048926830291748 1.56040096282958984 0.502783417701721191
1.05115175247192383 2.44335603713989258 -0.224800944328308105
0.249540925025939941 1.59554672241210938 -0.279989480972290039
-1.05351376533508301 1.57775509357452393 -0.388127386569976807
0.659566342830657959 2.51240730285644531 7.9631805419921875e-05
-0.364325016736984253 1.18611693382263184 -0.194974154233932495
1.99886918067932129 2.59448933601379395 -0.977715015411376953
1.22141385078430176 2.59924530982971191 0.320677965879440308
0.706751227378845215 2.12831735610961914 0.0693138390779495239
1.36671555042266846 2.57920169830322266 -0.365529447793960571
0.622029304504394531 1.85480332374572754 -0.834463238716125488
0.826331496238708496 2.35886597633361816 -1.1952517032623291
-0.235399156808853149 2.22128129005432129 0.0864620432257652283
0.728456497192382812 2.32272624969482422 -0.56197667121887207
-0.0946577340364456177 1.80257630348205566 0.788580060005187988
0.61015629768371582 2.15517449378967285 0.66345369815826416
-0.370552241802215576 1.86925065517425537 -0.233868002891540527
1.62474179267883301 3.18375372886657715 0.164805606007575989
1.14576280117034912 3.08024144172668457 -1.05937635898590088
0.726349294185638428 3.22244071960449219 -0.680340290069580078
0.0510448887944221497 2.24271917343139648 0.464596331119537354
-0.0456571429967880249 1.35479867458343506 -0.573732614517211914
1.4474177360534668 2.94700956344604492 -0.759122014045715332
1.41175186634063721 3.0779426097869873 0.847620368003845215
0.298321932554244995 2.31663107872009277 -0.502146363258361816
0.313272655010223389 1.6407623291015625 -0.960702300071716309
0.692599356174468994 2.76333928108215332 0.803044438362121582
1.07472729682922363 3.35142326354980469 -0.279393851757049561
1.10770046710968018 2.93767499923706055 1.10618817806243896
0.451813817024230957 1.70893430709838867 0.716201543807983398
-0.615876436233520508 1.58350002765655518 -0.590237617492675781
0.45228162407875061 2.33586955070495605 -0.199623465538024902
-0.843921482563018799 1.95727622509002686 -0.859568417072296143
1.18839788436889648 3.48550891876220703 -0.551041185855865479
-0.46570160984992981 1.83290386199951172 0.128020018339157104
-0.0684150606393814087 1.57749807834625244 -0.293834388256072998
0.242584198713302612 1.89028549194335938 0.236811727285385132
0.868584275245666504 2.51561450958251953 -0.922213435173034668
-0.201596587896347046 1.38494002819061279 -0.915768027305603027
-0.00346815586090087891 1.71817302703857422 0.500013589859008789
0.126269921660423279 2.32477211952209473 -0.199378505349159241
-0.524984180927276611 1.55333232879638672 0.0014386400580406189
0.940128505229949951 2.70210528373718262 0.987851083278656006
0.355803221464157104 2.25460100173950195 0.81265711784362793
1.44272780418395996 2.594635009765625 -0.765797853469848633
1.27910161018371582 3.02123045921325684 0.104275412857532501
-0.498095154762268066 1.81619060039520264 0.5629463791847229
1.37996160984039307 2.76478266716003418 -0.117951124906539917
1.64132177829742432 2.73500752449035645 0.55810922384262085
-1.14973270893096924 1.93881082534790039 0.26145896315574646
1.79261279106140137 2.78029990196228027 -0.851851761341094971
0.919044435024261475 3.12146806716918945 0.00395220005884766579
0.212353020906448364 2.64924383163452148 -0.316604673862457275
