ply
format ascii 1.0
element vertex 99
comment vertices
property float x
property float y
property float z
end_header
0.509760618209838867 2.21823000907897949 -0.0857592523097991943
2.01665115356445312 2.45686221122741699 1.07300424575805664
1.87178969383239746 3.28945016860961914 -1.0072636604309082
1.05350422859191895 2.44786334037780762 1.33026707172393799
0.214849680662155151 2.01882672309875488 -1.04144740104675293
-0.0140799432992935181 0.593565523624420166 -0.327090322971343994
1.68143153190612793 1.6847231388092041 -0.200832515954971313
0.864802360534667969 3.36601781845092773 0.770375728607177734
1.11191689968109131 2.8057253360748291 -0.835822463035583496
1.08735394477844238 3.25441908836364746 -0.101978316903114319
0.141095250844955444 1.71904611587524414 0.367658257484436035
0.43752974271774292 2.69483804702758789 0.636787354946136475
2.25807523727416992 2.05472254753112793 -1.0785973072052002
-0.207376748323440552 1.66296112537384033 -0.625550210475921631
0.789256155490875244 1.89399492740631104 0.465422987937927246
0.194025978446006775 1.92445898056030273 0.983229875564575195
-0.979546785354614258 1.59084033966064453 -0.00679566338658332825
-0.323700636625289917 1.53203058242797852 -0.599308669567108154
0.860846161842346191 2.97487807273864746 -0.0569417476654052734
0.65024113655090332 2.75946950912475586 -1.40313720703125
1.31775808334350586 2.8484961986541748 1.21093630790710449
0.592582464218139648 2.63615894317626953 -0.692792057991027832
1.30927085876464844 2.93236136436462402 0.159156560897827148
-0.00901320576667785645 2.08719110488891602 0.137097924947738647
0.795882225036621094 1.5463484525680542 -0.174528300762176514
1.40788662433624268 3.30979275703430176 0.0753742456436157227
0.899669528007507324 2.06239795684814453 -1.05105483531951904
-0.0878372639417648315 2.30927872657775879 -0.335686564445495605
0.705052614212036133 2.83777356147766113 1.13323307037353516
1.21439814567565918 2.72968840599060059 0.444903582334518433
1.39990341663360596 3.00289392471313477 -1.14800882339477539
-0.911497414112091064 1.27368783950805664 -0.451415598392486572
-0.0180142074823379517 1.09030020236968994 -1.16150164604187012
-0.385182052850723267 2.38485240936279297 -0.458867907524108887
0.179573193192481995 1.85130119323730469 0.45940929651260376
-0.557858586311340332 1.05449843406677246 -1.33506226539611816
0.564257621765136719 3.24001264572143555 0.66484832763671875
0.508745670318603516 2.50527095794677734 0.780416965484619141
1.25882518291473389 3.89490795135498047 -0.298761308193206787
-0.583246052265167236 1.70024144649505615 -1.24201583862304688
0.957741618156433105 3.1401214599609375 -0.881047844886779785
-1.10091376304626465 1.31112098693847656 0.264848887920379639
-0.816852271556854248 2.25814247131347656 -0.567685306072235107
1.32354378700256348 3.24137616157531738 -0.326324164867401123
0.483529895544052124 1.71261167526245117 0.0440495945513248444
1.2225039005279541 3.03723859786987305 0.207077890634536743
-0.111475944519042969 2.16117691993713379 -0.161881119012832642
0.975415587425231934 3.26869535446166992 0.0451596081256866455
-0.934107422828674316 1.77071106433868408 0.0341970324516296387
0.816515326499938965 2.80989670753479004 0.788797378540039062
0.579728901386260986 2.47223305702209473 0.995924830436706543
0.600684285163879395 2.27610874176025391 -0.289357006549835205
0.231212526559829712 2.27921438217163086 -1.02999138832092285
1.10991454124450684 2.8182065486907959 -1.19499635696411133
0.685464084148406982 3.24803590774536133 0.176785722374916077
0.134969502687454224 2.10475254058837891 1.17803263664245605
1.16901087760925293 2.12129473686218262 0.926032662391662598
1.66053533554077148 2.9376366138458252 0.836932957172393799
-0.417981207370758057 1.95786952972412109 0.798772573471069336
0.0298501104116439819 1.45953798294067383 -0.512152314186096191
-0.129041999578475952 0.679476737976074219 -0.430892437696456909
1.62121832370758057 2.23670434951782227 -1.18140292167663574
1.17892253398895264 2.41840648651123047 0.17816297709941864
0.798240363597869873 2.45150446891784668 -0.0463381260633468628
0.803958654403686523 1.85012459754943848 -0.995412826538085938
0.949797511100769043 2.68595480918884277 -1.25064945220947266
-0.620805323123931885 2.57831645011901855 -0.232835143804550171
0.892365992069244385 2.35734963417053223 -0.766107261180877686
-0.115535706281661987 2.06803989410400391 0.444768518209457397
0.400743603706359863 2.16819381713867188 0.767265439033508301
-0.251870691776275635 2.03798484802246094 -0.287277549505233765
1.4989631175994873 3.47523069381713867 0.0433889776468276978
1.1371835470199585 2.85324239730834961 -1.44581127166748047
1.35368800163269043 3.43831610679626465 -1.14711928367614746
-0.236377596855163574 2.53496384620666504 0.391058981418609619
-0.134232461452484131 1.27463281154632568 -0.74296271800994873
1.31770575046539307 3.0644536018371582 -0.906199216842651367
1.45493268966674805 3.40764737129211426 0.521516740322113037
0.050899118185043335 1.76735234260559082 -0.834445178508758545
1.14101874828338623 3.17635011672973633 -0.44213557243347168
1.22192502021789551 3.02964043617248535 0.923621296882629395
0.457770109176635742 1.85805988311767578 0.746528267860412598
-0.563007593154907227 1.89758181571960449 -0.805564403533935547
-0.737130343914031982 1.60364365577697754 -1.34591102600097656
-0.4603157639503479 1.76549601554870605 -0.105918183922767639
0.0162269771099090576 1.49855720996856689 -0.297744482755661011
0.0844214856624603271 2.45966482162475586 0.451666772365570068
0.908023238182067871 2.50837302207946777 -0.989089012145996094
-0.366867035627365112 1.31571698188781738 -1.02532804012298584
0.0375805646181106567 2.38747620582580566 -0.552638769149780273
0.884912729263305664 2.81072759628295898 0.742308318614959717
0.408324837684631348 2.62414050102233887 0.976753950119018555
1.26580095291137695 2.92114925384521484 -0.933420240879058838
1.34035003185272217 3.37919259071350098 0.0915029644966125488
-0.686722993850708008 2.23139858245849609 0.64084160327911377
1.32720255851745605 2.68439555168151855 0.370570480823516846
-0.976219415664672852 1.8518601655960083 -0.109344631433486938
1.45068275928497314 2.61119961738586426 -1.27255105972290039
1.07679188251495361 3.46094703674316406 -0.243817925453186035
